<svg width="1067" height="354" viewBox="0 0 1067 354" fill="none" xmlns="http://www.w3.org/2000/svg">
<circle opacity="0.1" cx="176.498" cy="177.477" r="176.498" fill="url(#paint0_linear)"/>
<path d="M314.43 165.807C315.655 140.377 297.894 123.507 277.849 111.925L264.82 188.468C273.84 187.964 278.25 191.388 279.854 193C281.858 195.014 286.869 201.057 280.856 210.625C293.384 208.61 312.951 196.525 314.43 165.807Z" fill="url(#paint1_linear)"/>
<path fill-rule="evenodd" clip-rule="evenodd" d="M143.52 76.6917L127.986 61.081C151.371 58.2274 213.075 61.8867 272.807 99.3524C273.81 103.381 272.807 109.424 272.807 109.424L277.819 111.942C282.161 118.152 289.545 135.811 284.333 156.759C279.121 177.708 270.135 186.638 266.293 188.484C258.275 188.484 244.645 193.117 240.235 213.663C235.825 234.209 227.373 238.674 223.698 238.338L135.502 239.345L77.3734 205.102L68.8545 134.099L85.3912 111.942L114.957 87.7702L136.004 79.2095L143.52 76.6917ZM247.685 106.022C243.796 110.073 240.159 112.016 239.121 112.543C216.411 107.713 208.23 95.9639 208.23 95.9639C229.651 95.8318 248.984 100.927 263.13 109.546C263.13 109.546 255.472 107.064 247.685 106.022Z" fill="url(#paint2_linear)"/>
<path fill-rule="evenodd" clip-rule="evenodd" d="M239.459 213.668C223.891 221.308 205.433 225.732 185.642 225.732C130.014 225.732 84.9186 190.786 84.9186 147.678C84.9186 115.837 109.523 88.4485 144.802 76.3074C77.7029 80.1772 23.7842 134.082 23.7842 200.595C23.7842 277.361 92.2127 340.791 176.624 340.791C239.655 340.791 292.123 304.246 319.557 255.352C281.808 263.841 237.121 247.7 239.459 213.668Z" fill="url(#paint3_linear)"/>
<path d="M481.405 229.007C499.49 229.007 513.782 221.833 523.991 213.369V171.189H480.53V186.684H506.636V205.335C500.365 209.926 491.76 212.938 481.989 212.938C461.133 212.938 447.278 197.731 447.278 177.072V176.785C447.278 157.56 461.717 141.492 480.385 141.492C493.219 141.492 501.094 145.509 508.97 152.108L520.345 138.766C509.845 130.014 498.761 125.136 481.114 125.136C450.195 125.136 428.465 148.952 428.465 177.072V177.359C428.465 206.626 449.466 229.007 481.405 229.007Z" fill="url(#paint4_linear)"/>
<path d="M596.063 229.007C627.419 229.007 649.587 205.191 649.587 177.072V176.785C649.587 148.522 627.711 125.136 596.355 125.136C564.999 125.136 542.831 148.952 542.831 177.072V177.359C542.831 205.622 564.707 229.007 596.063 229.007ZM596.355 212.651C575.937 212.651 561.645 196.583 561.645 177.072V176.785C561.645 157.273 575.791 141.492 596.063 141.492C616.481 141.492 630.774 157.56 630.774 177.072V177.359C630.774 196.87 616.627 212.651 596.355 212.651Z" fill="url(#paint5_linear)"/>
<path d="M698.395 228.002H714.438L756.732 126.858H737.335L706.708 204.043L675.936 126.858H656.101L698.395 228.002Z" fill="url(#paint6_linear)"/>
<path d="M774.233 227.285H850.654V211.504H792.172V184.675H843.362V168.75H792.172V142.639H849.925V126.858H774.233V227.285Z" fill="url(#paint7_linear)"/>
<path d="M871.936 227.285H889.874V192.279H912.334L937.419 227.285H958.712L931.148 189.266C945.294 185.249 955.357 175.35 955.357 158.851V158.564C955.357 149.813 952.295 142.496 946.898 136.901C940.336 130.588 930.272 126.858 917.438 126.858H871.936V227.285ZM889.874 176.641V142.926H915.98C929.397 142.926 937.127 148.665 937.127 159.569V159.856C937.127 170.185 928.96 176.641 916.126 176.641H889.874Z" fill="url(#paint8_linear)"/>
<path d="M977.329 227.285H994.976V155.838L1051.27 227.285H1066.29V126.858H1048.65V196.296L993.955 126.858H977.329V227.285Z" fill="url(#paint9_linear)"/>
<defs>
<linearGradient id="paint0_linear" x1="-108.234" y1="-142.426" x2="455.655" y2="44.8188" gradientUnits="userSpaceOnUse">
<stop stop-color="#E5DAFF"/>
<stop offset="1" stop-color="#FF9EA6"/>
</linearGradient>
<linearGradient id="paint1_linear" x1="249.591" y1="71.8279" x2="335.291" y2="86.1489" gradientUnits="userSpaceOnUse">
<stop stop-color="#E5DAFF"/>
<stop offset="1" stop-color="#FF9EA6"/>
</linearGradient>
<linearGradient id="paint2_linear" x1="2.23579" y1="-12.4049" x2="333.741" y2="121.193" gradientUnits="userSpaceOnUse">
<stop stop-color="#A379FF"/>
<stop offset="1" stop-color="#FF717D"/>
</linearGradient>
<linearGradient id="paint3_linear" x1="-66.9044" y1="-31.1391" x2="394.1" y2="140.051" gradientUnits="userSpaceOnUse">
<stop stop-color="#E5DAFF"/>
<stop offset="1" stop-color="#FF9EA6"/>
</linearGradient>
<linearGradient id="paint4_linear" x1="232.897" y1="82.9392" x2="452.225" y2="530.161" gradientUnits="userSpaceOnUse">
<stop stop-color="#A379FF"/>
<stop offset="1" stop-color="#FF717D"/>
</linearGradient>
<linearGradient id="paint5_linear" x1="232.897" y1="82.9392" x2="452.225" y2="530.161" gradientUnits="userSpaceOnUse">
<stop stop-color="#A379FF"/>
<stop offset="1" stop-color="#FF717D"/>
</linearGradient>
<linearGradient id="paint6_linear" x1="232.897" y1="82.9392" x2="452.225" y2="530.161" gradientUnits="userSpaceOnUse">
<stop stop-color="#A379FF"/>
<stop offset="1" stop-color="#FF717D"/>
</linearGradient>
<linearGradient id="paint7_linear" x1="232.897" y1="82.9392" x2="452.225" y2="530.161" gradientUnits="userSpaceOnUse">
<stop stop-color="#A379FF"/>
<stop offset="1" stop-color="#FF717D"/>
</linearGradient>
<linearGradient id="paint8_linear" x1="232.897" y1="82.9392" x2="452.225" y2="530.161" gradientUnits="userSpaceOnUse">
<stop stop-color="#A379FF"/>
<stop offset="1" stop-color="#FF717D"/>
</linearGradient>
<linearGradient id="paint9_linear" x1="232.897" y1="82.9392" x2="452.225" y2="530.161" gradientUnits="userSpaceOnUse">
<stop stop-color="#A379FF"/>
<stop offset="1" stop-color="#FF717D"/>
</linearGradient>
</defs>
</svg>
