<svg width="852" height="266" viewBox="0 0 852 266" fill="none" xmlns="http://www.w3.org/2000/svg">
<ellipse cx="133.018" cy="132.974" rx="133.018" ry="132.974" fill="url(#paint0_linear)" fill-opacity="0.05"/>
<path d="M236.971 124.181C237.893 105.022 224.508 92.3121 209.401 83.5861L199.582 141.254C206.38 140.874 209.703 143.454 210.912 144.668C212.422 146.186 216.199 150.738 211.667 157.947C221.109 156.429 235.856 147.324 236.971 124.181Z" fill="url(#paint1_linear)"/>
<path fill-rule="evenodd" clip-rule="evenodd" d="M108.165 57.0408L96.4569 45.2796C114.081 43.1297 160.584 45.8867 205.602 74.1134C206.357 77.1486 205.602 81.7013 205.602 81.7013L209.379 83.5982C212.652 88.2774 218.216 101.581 214.288 117.364C210.361 133.147 203.588 139.875 200.693 141.266C194.65 141.266 184.377 144.756 181.054 160.235C177.73 175.715 171.361 179.079 168.591 178.826L102.122 179.584L58.3128 153.786L51.8925 100.291L64.3554 83.5982L86.6376 65.3874L102.5 58.9378L108.165 57.0408ZM186.668 79.1388C183.737 82.1908 180.997 83.655 180.214 84.0521C163.099 80.4127 156.933 71.5612 156.933 71.5612C173.077 71.4616 187.648 75.3002 198.308 81.7937C198.308 81.7937 192.538 79.9242 186.668 79.1388Z" fill="url(#paint2_linear)"/>
<path fill-rule="evenodd" clip-rule="evenodd" d="M181.08 160.241C169.303 165.997 155.341 169.329 140.37 169.329C98.2879 169.329 64.1738 143.001 64.1738 110.523C64.1738 86.5327 82.7879 65.8977 109.478 56.7511C58.7161 59.6645 17.9249 100.278 17.9249 150.39C17.9249 208.226 69.6902 256.014 133.546 256.014C181.229 256.014 220.92 228.481 241.673 191.644C213.117 198.04 179.313 185.88 181.08 160.241Z" fill="url(#paint3_linear)"/>
<path d="M366.591 177.801C381.993 177.801 394.165 171.591 402.859 164.263V127.747H365.846V141.161H388.079V157.307C382.738 161.282 375.41 163.89 367.088 163.89C349.327 163.89 337.528 150.724 337.528 132.839V132.591C337.528 115.947 349.824 102.036 365.722 102.036C376.652 102.036 383.359 105.514 390.066 111.227L399.754 99.6764C390.811 92.0999 381.372 87.877 366.343 87.877C340.012 87.877 321.505 108.495 321.505 132.839V133.087C321.505 158.425 339.391 177.801 366.591 177.801Z" fill="url(#paint4_linear)"/>
<path d="M460.512 177.801C487.216 177.801 506.095 157.183 506.095 132.839V132.591C506.095 108.122 487.465 87.877 460.761 87.877C434.057 87.877 415.178 108.495 415.178 132.839V133.087C415.178 157.556 433.808 177.801 460.512 177.801ZM460.761 163.642C443.372 163.642 431.2 149.731 431.2 132.839V132.591C431.2 115.699 443.248 102.036 460.512 102.036C477.901 102.036 490.073 115.947 490.073 132.839V133.087C490.073 149.979 478.025 163.642 460.761 163.642Z" fill="url(#paint5_linear)"/>
<path d="M543.936 176.932H557.599L593.618 89.3674H577.099L551.016 156.189L524.809 89.3674H507.917L543.936 176.932Z" fill="url(#paint6_linear)"/>
<path d="M604.796 176.311H669.879V162.648H620.073V139.422H663.669V125.635H620.073V103.03H669.258V89.3674H604.796V176.311Z" fill="url(#paint7_linear)"/>
<path d="M775.926 176.311H790.955V114.457L838.897 176.311H851.691V89.3674H836.662V149.482L790.085 89.3674H775.926V176.311Z" fill="url(#paint8_linear)"/>
<path d="M726.793 88.6045C737.594 88.6045 746.062 91.8723 751.585 97.4026C756.126 102.304 758.703 108.714 758.703 116.381L758.7 117.102C758.523 130.963 750.471 139.42 739.102 143.041L738.33 143.278L761.526 176.585H743.608L722.498 145.918L711.417 145.915L719.193 132.215L725.689 132.218C736.244 132.218 743.048 126.816 743.351 118.124L743.362 117.512L743.359 116.926C743.208 107.591 736.724 102.681 725.566 102.681H703.597L703.595 129.878L703.583 129.877V149.497L703.595 149.49L703.597 176.585H688.501V88.6045H726.793Z" fill="url(#paint9_linear)"/>
<defs>
<linearGradient id="paint0_linear" x1="133.018" y1="93.0588" x2="133.018" y2="269.445" gradientUnits="userSpaceOnUse">
<stop stop-color="#DDBDFF"/>
<stop offset="1" stop-color="#E3C5FF"/>
</linearGradient>
<linearGradient id="paint1_linear" x1="194.883" y1="73.2412" x2="292.508" y2="133.746" gradientUnits="userSpaceOnUse">
<stop stop-color="#F4DEFF"/>
<stop offset="1" stop-color="#9051FF"/>
</linearGradient>
<linearGradient id="paint2_linear" x1="3.59503" y1="-27.1726" x2="238.045" y2="426.738" gradientUnits="userSpaceOnUse">
<stop stop-color="#F4C5CE"/>
<stop offset="1" stop-color="#9051FF"/>
</linearGradient>
<linearGradient id="paint3_linear" x1="-10.1609" y1="29.0302" x2="267.279" y2="412.571" gradientUnits="userSpaceOnUse">
<stop stop-color="#F4DEFF"/>
<stop offset="1" stop-color="#9051FF"/>
</linearGradient>
<linearGradient id="paint4_linear" x1="246.268" y1="77.2956" x2="306.421" y2="358.301" gradientUnits="userSpaceOnUse">
<stop stop-color="#F4C5CE"/>
<stop offset="1" stop-color="#7B80FC"/>
</linearGradient>
<linearGradient id="paint5_linear" x1="246.268" y1="77.2956" x2="306.421" y2="358.301" gradientUnits="userSpaceOnUse">
<stop stop-color="#F4C5CE"/>
<stop offset="1" stop-color="#7B80FC"/>
</linearGradient>
<linearGradient id="paint6_linear" x1="246.268" y1="77.2956" x2="306.421" y2="358.301" gradientUnits="userSpaceOnUse">
<stop stop-color="#F4C5CE"/>
<stop offset="1" stop-color="#7B80FC"/>
</linearGradient>
<linearGradient id="paint7_linear" x1="246.268" y1="77.2956" x2="306.421" y2="358.301" gradientUnits="userSpaceOnUse">
<stop stop-color="#F4C5CE"/>
<stop offset="1" stop-color="#7B80FC"/>
</linearGradient>
<linearGradient id="paint8_linear" x1="246.268" y1="77.2956" x2="306.421" y2="358.301" gradientUnits="userSpaceOnUse">
<stop stop-color="#F4C5CE"/>
<stop offset="1" stop-color="#7B80FC"/>
</linearGradient>
<linearGradient id="paint9_linear" x1="246.268" y1="77.2956" x2="306.421" y2="358.301" gradientUnits="userSpaceOnUse">
<stop stop-color="#F4C5CE"/>
<stop offset="1" stop-color="#7B80FC"/>
</linearGradient>
</defs>
</svg>
