<svg width="1174" height="367" viewBox="0 0 1174 367" fill="none" xmlns="http://www.w3.org/2000/svg">
<ellipse opacity="0.1" cx="183.285" cy="183.225" rx="183.285" ry="183.225" fill="url(#paint0_linear)"/>
<path d="M326.52 171.108C327.792 144.709 309.348 127.196 288.532 115.173L275.002 194.632C284.369 194.11 288.949 197.664 290.614 199.337C292.695 201.428 297.899 207.701 291.655 217.634C304.664 215.543 324.984 202.997 326.52 171.108Z" fill="url(#paint1_linear)"/>
<path fill-rule="evenodd" clip-rule="evenodd" d="M149.039 78.5961L132.908 62.3905C157.192 59.4282 221.268 63.2269 283.298 102.12C284.339 106.303 283.298 112.576 283.298 112.576L288.502 115.189C293.012 121.637 300.679 139.968 295.267 161.715C289.855 183.462 280.523 192.732 276.533 194.649C268.207 194.649 254.053 199.459 249.473 220.787C244.894 242.116 236.117 246.751 232.301 246.403L140.713 247.448L80.3489 211.9L71.5024 138.191L88.6751 115.189L119.378 90.0969L141.234 81.2099L149.039 78.5961ZM257.209 109.045C253.171 113.25 249.394 115.268 248.316 115.815C224.733 110.8 216.237 98.6037 216.237 98.6037C238.482 98.4665 258.559 103.756 273.248 112.703C273.248 112.703 265.296 110.127 257.209 109.045Z" fill="url(#paint2_linear)"/>
<path fill-rule="evenodd" clip-rule="evenodd" d="M249.509 220.795C233.282 228.726 214.043 233.317 193.415 233.317C135.43 233.317 88.4248 197.04 88.4248 152.289C88.4248 119.232 114.074 90.7992 150.85 78.1964C80.9053 82.2101 24.6987 138.171 24.6987 207.221C24.6987 286.913 96.0258 352.76 184.012 352.76C249.714 352.76 304.404 314.822 333 264.064C293.653 272.877 247.075 256.122 249.509 220.795Z" fill="url(#paint3_linear)"/>
<path d="M505.124 244.991C526.345 244.991 543.117 236.434 555.097 226.337V176.021H504.097V194.504H534.731V216.753C527.372 222.229 517.275 225.823 505.809 225.823C481.336 225.823 465.077 207.682 465.077 183.038V182.696C465.077 159.763 482.02 140.595 503.926 140.595C518.986 140.595 528.228 145.387 537.47 153.26L550.819 137.343C538.496 126.904 525.49 121.085 504.782 121.085C468.5 121.085 443 149.494 443 183.038V183.38C443 218.293 467.644 244.991 505.124 244.991Z" fill="url(#paint4_linear)"/>
<path d="M634.537 244.991C671.332 244.991 697.346 216.582 697.346 183.038V182.696C697.346 148.981 671.675 121.085 634.879 121.085C598.084 121.085 572.071 149.494 572.071 183.038V183.38C572.071 217.095 597.742 244.991 634.537 244.991ZM634.879 225.481C610.92 225.481 594.148 206.313 594.148 183.038V182.696C594.148 159.421 610.749 140.595 634.537 140.595C658.497 140.595 675.269 159.763 675.269 183.038V183.38C675.269 206.655 658.668 225.481 634.879 225.481Z" fill="url(#paint5_linear)"/>
<path d="M749.486 243.793H768.312L817.942 123.139H795.181L759.241 215.212L723.13 123.139H699.855L749.486 243.793Z" fill="url(#paint6_linear)"/>
<path d="M833.345 242.937H923.023V224.112H854.395V192.108H914.466V173.112H854.395V141.964H922.167V123.139H833.345V242.937Z" fill="url(#paint7_linear)"/>
<path d="M1069.14 242.937H1089.85V157.709L1155.91 242.937H1173.54V123.139H1152.83V205.971L1088.65 123.139H1069.14V242.937Z" fill="url(#paint8_linear)"/>
<path d="M1001.44 122.088C1016.33 122.088 1027.99 126.59 1035.6 134.21C1041.86 140.964 1045.41 149.797 1045.41 160.361L1045.41 161.354C1045.16 180.453 1034.07 192.106 1018.4 197.096L1017.34 197.422L1049.3 243.316H1024.61L995.525 201.059L980.257 201.056L990.971 182.178L999.922 182.182C1014.47 182.182 1023.84 174.739 1024.26 162.763L1024.27 161.92L1024.27 161.111C1024.06 148.249 1015.13 141.484 999.753 141.484H969.482L969.479 178.959L969.463 178.956V205.991L969.479 205.982L969.482 243.316H948.682V122.088H1001.44Z" fill="url(#paint9_linear)"/>
<defs>
<linearGradient id="paint0_linear" x1="265.291" y1="654.867" x2="28.6829" y2="213.758" gradientUnits="userSpaceOnUse">
<stop stop-color="#FAFEFF"/>
<stop offset="1" stop-color="#A9B9FF"/>
</linearGradient>
<linearGradient id="paint1_linear" x1="229.458" y1="14.3122" x2="356.878" y2="35.5073" gradientUnits="userSpaceOnUse">
<stop stop-color="#AAFFE7"/>
<stop offset="1" stop-color="#B3B1FF"/>
</linearGradient>
<linearGradient id="paint2_linear" x1="-127.72" y1="-121.337" x2="365.669" y2="76.5909" gradientUnits="userSpaceOnUse">
<stop stop-color="#7BFFDA"/>
<stop offset="1" stop-color="#9D9BFF"/>
</linearGradient>
<linearGradient id="paint3_linear" x1="-247.525" y1="-192.077" x2="440.443" y2="63.1812" gradientUnits="userSpaceOnUse">
<stop stop-color="#AAFFE7"/>
<stop offset="1" stop-color="#B3B1FF"/>
</linearGradient>
<linearGradient id="paint4_linear" x1="-202.05" y1="-0.88473" x2="184.692" y2="752.563" gradientUnits="userSpaceOnUse">
<stop stop-color="#7BFFDA"/>
<stop offset="1" stop-color="#9D9BFF"/>
</linearGradient>
<linearGradient id="paint5_linear" x1="-202.05" y1="-0.88473" x2="184.692" y2="752.563" gradientUnits="userSpaceOnUse">
<stop stop-color="#7BFFDA"/>
<stop offset="1" stop-color="#9D9BFF"/>
</linearGradient>
<linearGradient id="paint6_linear" x1="-202.05" y1="-0.88473" x2="184.692" y2="752.563" gradientUnits="userSpaceOnUse">
<stop stop-color="#7BFFDA"/>
<stop offset="1" stop-color="#9D9BFF"/>
</linearGradient>
<linearGradient id="paint7_linear" x1="-202.05" y1="-0.88473" x2="184.692" y2="752.563" gradientUnits="userSpaceOnUse">
<stop stop-color="#7BFFDA"/>
<stop offset="1" stop-color="#9D9BFF"/>
</linearGradient>
<linearGradient id="paint8_linear" x1="-202.05" y1="-0.88473" x2="184.692" y2="752.563" gradientUnits="userSpaceOnUse">
<stop stop-color="#7BFFDA"/>
<stop offset="1" stop-color="#9D9BFF"/>
</linearGradient>
<linearGradient id="paint9_linear" x1="-202.05" y1="-0.88473" x2="184.692" y2="752.563" gradientUnits="userSpaceOnUse">
<stop stop-color="#7BFFDA"/>
<stop offset="1" stop-color="#9D9BFF"/>
</linearGradient>
</defs>
</svg>
