<svg width="107" height="18" viewBox="0 0 107 18" fill="none" xmlns="http://www.w3.org/2000/svg">
<path fill-rule="evenodd" clip-rule="evenodd" d="M32.5621 2.39709C31.5366 1.37774 29.9643 0.775391 27.959 0.775391H20.8492V16.9924H23.6521L23.6516 11.9981L23.6495 11.9994V8.38287L23.6516 8.38318L23.6521 3.37011H27.7311C29.8029 3.37011 31.0068 4.27511 31.0348 5.99569L31.0353 6.10382L31.0333 6.21658C30.9769 7.8187 29.7136 8.81437 27.7539 8.81437L26.5478 8.81387L25.104 11.3391L27.1614 11.3396L31.0809 16.9924H34.4079L30.101 10.8531L30.2443 10.8094C32.3553 10.1419 33.8503 8.5831 33.8832 6.02815L33.8838 5.89532C33.8838 4.48213 33.4052 3.3006 32.5621 2.39709ZM69.0814 2.94068C67.4438 1.5504 65.7153 0.775494 62.9633 0.775494C58.1941 0.775494 54.8267 4.47707 54.7541 8.88057L54.7529 9.07157C54.7529 13.721 58.0279 17.2765 63.0088 17.2765C65.829 17.2765 68.0579 16.1369 69.65 14.7922V8.09154L66.9435 10.553V13.5159C65.9655 14.2452 64.6236 14.7238 63.0998 14.7238C59.8953 14.7238 57.7506 12.3785 57.6882 9.17021L57.6868 8.9804C57.6868 5.92635 59.9384 3.37372 62.8496 3.37372C64.851 3.37372 66.0792 4.01187 67.3074 5.06028L69.0814 2.94068ZM89.2768 8.9804C89.2768 4.49049 85.8652 0.775494 80.9754 0.775494C76.1381 0.775494 72.7029 4.47794 72.6296 8.88213L72.6284 9.07157C72.6284 13.5615 76.04 17.2765 80.9299 17.2765C85.7672 17.2765 89.2023 13.574 89.2756 9.16985L89.2768 8.9804ZM17.4748 17.003L10.4698 0.935034H7.877L0.871948 17.003L3.66884 17.0029L9.1279 4.28537L14.6271 17.0029L17.4748 17.003ZM53.5555 17.003L46.5505 0.935034H43.9577L36.9527 17.003L39.7496 17.0029L45.2086 4.28537L50.7078 17.0029L53.5555 17.003ZM103.417 12.08L94.8882 1.04899H92.2954V17.003H95.0474V5.65286L103.826 17.003H106.169V1.04899H103.417V12.08ZM75.5624 8.9804C75.5624 5.88077 77.7685 3.37372 80.9299 3.37372C84.0672 3.37372 86.2771 5.85183 86.3414 8.8896L86.3429 9.07157C86.3429 12.1712 84.1367 14.6783 80.9754 14.6783C77.8381 14.6783 75.6281 12.2001 75.5638 9.16237L75.5624 8.9804Z" fill="url(#paint0_linear)"/>
<defs>
<linearGradient id="paint0_linear" x1="-27.9912" y1="-5.33885" x2="-7.50334" y2="57.3934" gradientUnits="userSpaceOnUse">
<stop stop-color="#01E8F7"/>
<stop offset="1" stop-color="#00B3EC"/>
</linearGradient>
</defs>
</svg>
