<svg width="20" height="20" viewBox="0 0 20 20" fill="none" xmlns="http://www.w3.org/2000/svg">
<path d="M10 0C4.48578 0 0 4.48578 0 10C0 15.5142 4.48578 20 10 20C15.5142 20 20 15.5142 20 10C20 4.48578 15.5142 0 10 0Z" fill="#00C2FF"/>
<path d="M14.7505 8.17299L9.21874 13.908C9.05278 14.08 8.83493 14.1666 8.61708 14.1666C8.39924 14.1666 8.18139 14.08 8.01543 13.908L5.24964 11.0405C4.91679 10.6956 4.91679 10.1379 5.24964 9.79293C5.58233 9.44784 6.12009 9.44784 6.45294 9.79293L8.61708 12.0366L13.5472 6.92544C13.8799 6.58035 14.4176 6.58035 14.7505 6.92544C15.0832 7.27037 15.0832 7.8279 14.7505 8.17299Z" fill="white"/>
</svg>
