<svg width="88" height="88" viewBox="0 0 88 88" fill="none" xmlns="http://www.w3.org/2000/svg">
<circle cx="44" cy="44" r="44" fill="#FF6A60"/>
<path d="M47.1149 44.5003L60.3538 30.8713C61.2154 29.9848 61.2154 28.5514 60.3538 27.6649C59.4927 26.7784 58.1003 26.7784 57.2391 27.6649L43.9998 41.2939L30.7609 27.6649C29.8993 26.7784 28.5073 26.7784 27.6462 27.6649C26.7846 28.5514 26.7846 29.9848 27.6462 30.8713L40.8851 44.5003L27.6462 58.1293C26.7846 59.0158 26.7846 60.4491 27.6462 61.3356C28.0753 61.7779 28.6396 62 29.2035 62C29.7674 62 30.3313 61.7779 30.7609 61.3356L43.9998 47.7066L57.2391 61.3356C57.6687 61.7779 58.2326 62 58.7965 62C59.3604 62 59.9243 61.7779 60.3538 61.3356C61.2154 60.4491 61.2154 59.0158 60.3538 58.1293L47.1149 44.5003Z" fill="white"/>
</svg>
