<svg width="24" height="27" viewBox="0 0 24 27" fill="none" xmlns="http://www.w3.org/2000/svg">
<path d="M2.86355 22.9905H18.3294L17.5908 20.5989C17.7003 20.6943 23.9272 26.0317 23.9272 26.0317V2.6854C23.8535 1.23418 22.604 0.000976562 21.0551 0.000976562L2.86898 0.00423041C1.3212 0.00423041 0.0651855 1.23961 0.0651855 2.69082V20.305C0.0651855 21.8354 1.31903 22.9905 2.86355 22.9905ZM14.3043 6.16484L14.2685 6.17786L14.2816 6.16484H14.3043ZM6.02745 7.54122C8.01559 6.09434 9.85839 6.16376 9.85839 6.16376L10.007 6.31018C7.57414 6.89045 6.47106 7.97724 6.47106 7.97724C6.58387 7.95337 11.4962 5.11928 17.4487 8.04882C17.4487 8.04882 16.3434 7.03254 14.0603 6.38177L14.262 6.18328C14.5777 6.18437 16.248 6.24294 18.0355 7.5499C18.0355 7.5499 20.0356 10.9664 20.0356 15.1639C19.9694 15.0836 18.7947 16.9709 15.7718 17.0359C15.7718 17.0359 15.2599 16.4568 14.8955 15.9513C16.6634 15.4437 17.325 14.4285 17.325 14.4285C13.8835 16.5956 10.8671 16.2572 7.25851 14.793C7.22489 14.793 7.2097 14.7778 7.19235 14.7604V14.7539C7.17499 14.7376 7.15981 14.7214 7.12619 14.7214H7.06111C6.83984 14.576 6.69233 14.5044 6.69233 14.5044C6.69233 14.5044 7.35288 15.5196 9.05034 16.0273C8.60455 16.5359 8.1631 17.114 8.1631 17.114C5.1413 17.0424 4.0393 15.1552 4.0393 15.1552C4.0393 10.9513 6.02745 7.54122 6.02745 7.54122Z" fill="url(#paint0_linear)"/>
<path d="M14.4993 13.8521C15.2705 13.8521 15.8986 13.2014 15.8986 12.3989C15.8986 11.6018 15.2738 10.9512 14.4993 10.9512V10.9544C13.7314 10.9544 13.1023 11.6029 13.1001 12.4054C13.1001 13.2014 13.7281 13.8521 14.4993 13.8521Z" fill="#46C4C2"/>
<path d="M9.49072 13.8521C10.2619 13.8521 10.8899 13.2014 10.8899 12.3989C10.8899 11.6018 10.2662 10.9512 9.49506 10.9512L9.49072 10.9544C8.71955 10.9544 8.09155 11.6029 8.09155 12.4054C8.09155 13.2014 8.71955 13.8521 9.49072 13.8521Z" fill="#46C4C2"/>
<defs>
<linearGradient id="paint0_linear" x1="7.78593" y1="2.79269" x2="22.2049" y2="20.0777" gradientUnits="userSpaceOnUse">
<stop stop-color="#01E8F7"/>
<stop offset="1" stop-color="#00B3EC"/>
</linearGradient>
</defs>
</svg>
