<svg width="26" height="25" viewBox="0 0 26 25" fill="none" xmlns="http://www.w3.org/2000/svg">
<path opacity="0.5" d="M22.7874 20.8278C26.3677 16.6982 25.9283 10.4707 21.8889 6.85645C23.9637 14.1268 18.4775 21.3892 10.9187 21.3892C10.7732 21.3892 11.6514 21.3943 8.19238 21.3729C10.0842 23.2559 12.604 24.2822 15.2345 24.2822C15.2413 24.2822 24.5041 24.2348 24.5095 24.2348C25.1419 24.2318 25.4569 23.4622 25.0058 23.017L22.7874 20.8278Z" fill="url(#paint0_linear)"/>
<path d="M10.9188 19.9663C16.4235 19.9663 20.9019 15.4879 20.9019 9.98315C20.9019 4.47843 16.4235 0 10.9188 0C5.41415 0 0.935881 4.47843 0.935881 9.98315C0.935881 12.4066 1.79375 14.6986 3.36593 16.5119L1.14755 18.7011C0.697936 19.1449 1.00939 19.9158 1.64388 19.9189C1.64877 19.9189 10.914 19.9663 10.9188 19.9663ZM6.6743 6.44992H15.2108C15.6037 6.44992 15.9222 6.76844 15.9222 7.16131C15.9222 7.55419 15.6037 7.8727 15.2108 7.8727H6.6743C6.28141 7.8727 5.96293 7.55419 5.96293 7.16131C5.96293 6.76844 6.28146 6.44992 6.6743 6.44992ZM6.6743 9.29548H15.2108C15.6037 9.29548 15.9222 9.61399 15.9222 10.0069C15.9222 10.3997 15.6037 10.7183 15.2108 10.7183H6.6743C6.28141 10.7183 5.96293 10.3997 5.96293 10.0069C5.96293 9.61399 6.28146 9.29548 6.6743 9.29548ZM5.96293 12.8524C5.96293 12.4595 6.28141 12.141 6.6743 12.141H15.2108C15.6037 12.141 15.9222 12.4595 15.9222 12.8524C15.9222 13.2453 15.6037 13.5638 15.2108 13.5638H6.6743C6.28146 13.5638 5.96293 13.2453 5.96293 12.8524Z" fill="url(#paint1_linear)"/>
<defs>
<linearGradient id="paint0_linear" x1="13.7012" y1="8.7253" x2="23.2253" y2="20.8944" gradientUnits="userSpaceOnUse">
<stop stop-color="#01E8F7"/>
<stop offset="1" stop-color="#00B3EC"/>
</linearGradient>
<linearGradient id="paint1_linear" x1="7.39563" y1="2.14132" x2="18.2448" y2="16.3292" gradientUnits="userSpaceOnUse">
<stop stop-color="#01E8F7"/>
<stop offset="1" stop-color="#00B3EC"/>
</linearGradient>
</defs>
</svg>
