<svg width="25" height="23" viewBox="0 0 25 23" fill="none" xmlns="http://www.w3.org/2000/svg">
<path d="M23.068 14.782C22.6012 14.8502 22.1557 15.0234 21.7647 15.2888C21.3737 15.5542 21.0472 15.9049 20.8096 16.3148C20.572 16.7247 20.4294 17.1832 20.3924 17.6562C20.3555 18.1292 20.425 18.6045 20.596 19.0467C20.7047 19.3358 20.7207 19.6518 20.6418 19.9506C20.5629 20.2493 20.393 20.5156 20.156 20.7124C19.1096 21.5961 17.9186 22.2904 16.636 22.7643C16.3439 22.8734 16.0251 22.887 15.7249 22.8032C15.4247 22.7194 15.1584 22.5425 14.964 22.2975C14.6714 21.9212 14.2975 21.6169 13.8706 21.4076C13.4437 21.1983 12.9749 21.0895 12.5 21.0895C12.0251 21.0895 11.5564 21.1983 11.1294 21.4076C10.7025 21.6169 10.3286 21.9212 10.036 22.2975C9.84163 22.5425 9.57536 22.7194 9.27514 22.8032C8.97493 22.887 8.65607 22.8734 8.36401 22.7643C7.17975 22.3268 6.07248 21.702 5.08401 20.9135C4.83485 20.7151 4.65538 20.4417 4.57189 20.1333C4.48839 19.8249 4.50526 19.4977 4.62001 19.1996C4.80462 18.7457 4.88089 18.2546 4.84271 17.7657C4.80453 17.2768 4.65297 16.8037 4.40017 16.3843C4.14738 15.965 3.80039 15.611 3.38705 15.3509C2.9737 15.0908 2.50551 14.9318 2.02002 14.8866C1.70482 14.8527 1.40878 14.7179 1.17547 14.5021C0.942154 14.2862 0.783905 14.0007 0.724017 13.6876C0.575055 12.946 0.500017 12.1912 0.500017 11.4346C0.498922 10.8011 0.549761 10.1687 0.652017 9.5436C0.702909 9.22047 0.858214 8.92321 1.09392 8.69776C1.32963 8.47232 1.63261 8.33125 1.95602 8.29637C2.45217 8.24954 2.92996 8.08385 3.34938 7.81317C3.7688 7.54249 4.11766 7.17469 4.36676 6.74056C4.61586 6.30643 4.75794 5.8186 4.78113 5.31791C4.80431 4.81721 4.70792 4.31821 4.50001 3.86267C4.36396 3.56636 4.33021 3.23282 4.40413 2.91502C4.47804 2.59721 4.65539 2.31335 4.90801 2.1085C5.9481 1.24076 7.12767 0.557737 8.39601 0.0887909C8.5582 0.0322857 8.72838 0.00240135 8.90001 0.000278473C9.13535 0.000793457 9.36713 0.058054 9.57592 0.167259C9.78472 0.276466 9.96444 0.434433 10.1 0.627916C10.3851 1.04577 10.7674 1.38731 11.2135 1.62289C11.6596 1.85847 12.1561 1.98097 12.66 1.97975C13.1482 1.97913 13.6295 1.86387 14.0656 1.64315C14.5017 1.42243 14.8806 1.10235 15.172 0.708384C15.3659 0.446291 15.6404 0.256039 15.953 0.167257C16.2655 0.0784779 16.5985 0.0961552 16.9 0.217537C18.0598 0.687014 19.1394 1.33589 20.1 2.14069C20.3413 2.34135 20.5131 2.61381 20.5907 2.91889C20.6684 3.22397 20.6478 3.54595 20.532 3.83853C20.3438 4.28658 20.2618 4.7725 20.2924 5.25791C20.3229 5.74332 20.4652 6.21495 20.708 6.63556C20.9509 7.05617 21.2876 7.41425 21.6916 7.68153C22.0956 7.94881 22.5558 8.11798 23.036 8.17568C23.3473 8.21898 23.6369 8.36086 23.8627 8.58076C24.0885 8.80066 24.2389 9.08716 24.292 9.39876C24.4205 10.0699 24.4901 10.7511 24.5 11.4346C24.5002 12.1554 24.4332 12.8747 24.3 13.583C24.246 13.8877 24.0979 14.1676 23.8767 14.3828C23.6555 14.5981 23.3726 14.7377 23.068 14.782ZM16.5 11.4346C16.5 10.6388 16.2654 9.86096 15.8259 9.19933C15.3864 8.5377 14.7616 8.02202 14.0307 7.7175C13.2998 7.41298 12.4956 7.33331 11.7196 7.48855C10.9437 7.64379 10.231 8.02697 9.67158 8.58965C9.11217 9.15232 8.73121 9.86921 8.57687 10.6497C8.42253 11.4301 8.50174 12.2391 8.80449 12.9742C9.10724 13.7094 9.61993 14.3378 10.2777 14.7798C10.9355 15.2219 11.7089 15.4579 12.5 15.4579C13.5609 15.4579 14.5783 15.034 15.3284 14.2795C16.0786 13.525 16.5 12.5016 16.5 11.4346Z" fill="#B4C1E4"/>
</svg>
