<svg width="27" height="22" viewBox="0 0 27 22" fill="none" xmlns="http://www.w3.org/2000/svg">
<path d="M26.1418 2.93177C25.1743 3.34964 24.1434 3.62662 23.0685 3.76111C24.1743 3.11108 25.0182 2.08962 25.415 0.858426C24.384 1.46362 23.2458 1.8911 22.0327 2.12965C21.0538 1.10339 19.6586 0.467773 18.1366 0.467773C15.1836 0.467773 12.8062 2.8277 12.8062 5.72078C12.8062 6.13704 12.842 6.5373 12.9298 6.91835C8.49542 6.70541 4.57165 4.61286 1.93574 1.42519C1.47556 2.2113 1.20562 3.11108 1.20562 4.07971C1.20562 5.89849 2.15689 7.51073 3.57485 8.44414C2.71789 8.42813 1.8772 8.18317 1.16497 7.79732C1.16497 7.81333 1.16497 7.83414 1.16497 7.85496C1.16497 10.407 3.01384 12.5268 5.43836 13.0151C5.00419 13.132 4.53099 13.188 4.03991 13.188C3.69843 13.188 3.3537 13.1688 3.03011 13.0984C3.7212 15.1781 5.68227 16.7071 8.0141 16.7567C6.19937 18.1544 3.89519 18.9966 1.40076 18.9966C0.963335 18.9966 0.543801 18.9774 0.124268 18.9245C2.48699 20.4247 5.28713 21.2812 8.3068 21.2812C18.1219 21.2812 23.4881 13.2761 23.4881 6.33717C23.4881 6.10502 23.4799 5.88088 23.4685 5.65833C24.5271 4.91866 25.4166 3.99486 26.1418 2.93177Z" fill="url(#paint0_linear)"/>
<defs>
<linearGradient id="paint0_linear" x1="8.54244" y1="2.69995" x2="18.9759" y2="19.7555" gradientUnits="userSpaceOnUse">
<stop stop-color="#01E8F7"/>
<stop offset="1" stop-color="#00B3EC"/>
</linearGradient>
</defs>
</svg>
