<svg width="28" height="20" viewBox="0 0 28 20" fill="none" xmlns="http://www.w3.org/2000/svg">
<path d="M27.0603 3.22764C26.7417 2.04405 25.8085 1.11109 24.6251 0.792374C22.463 0.200684 13.8145 0.200684 13.8145 0.200684C13.8145 0.200684 5.16618 0.200684 3.00405 0.76982C1.84341 1.08833 0.88745 2.04426 0.568937 3.22764C0 5.38952 0 9.87305 0 9.87305C0 9.87305 0 14.3791 0.568937 16.5184C0.88766 17.7018 1.82064 18.635 3.00426 18.9537C5.18894 19.5454 13.8147 19.5454 13.8147 19.5454C13.8147 19.5454 22.463 19.5454 24.6251 18.9763C25.8088 18.6578 26.7417 17.7246 27.0605 16.5412C27.6294 14.3791 27.6294 9.89581 27.6294 9.89581C27.6294 9.89581 27.6522 5.38952 27.0603 3.22764Z" fill="url(#paint0_linear)"/>
<path d="M11.0605 14.0146L18.2523 9.87305L11.0605 5.73145V14.0146Z" fill="white"/>
<defs>
<linearGradient id="paint0_linear" x1="8.93973" y1="2.27534" x2="18.0044" y2="19.2062" gradientUnits="userSpaceOnUse">
<stop stop-color="#01E8F7"/>
<stop offset="1" stop-color="#00B3EC"/>
</linearGradient>
</defs>
</svg>
