<svg width="1068" height="322" viewBox="0 0 1068 322" fill="none" xmlns="http://www.w3.org/2000/svg">
<circle opacity="0.1" cx="160.637" cy="160.637" r="160.637" fill="url(#paint0_linear)"/>
<path d="M286.174 150.015C287.289 126.871 271.124 111.517 252.88 100.975L241.022 170.64C249.232 170.181 253.245 173.298 254.705 174.765C256.529 176.598 261.09 182.098 255.617 190.806C267.019 188.972 284.828 177.973 286.174 150.015Z" fill="url(#paint1_linear)"/>
<path fill-rule="evenodd" clip-rule="evenodd" d="M130.623 68.9086L116.484 54.7007C137.768 52.1036 193.927 55.434 248.292 89.5329C249.204 93.1994 248.292 98.6992 248.292 98.6992L252.852 100.991C256.805 106.643 263.525 122.715 258.781 141.781C254.038 160.847 245.859 168.975 242.363 170.655C235.065 170.655 222.66 174.872 218.646 193.571C214.633 212.27 206.94 216.334 203.596 216.029L123.326 216.945L70.4202 185.78L62.6669 121.157L77.7175 100.991L104.626 78.9915L123.782 71.2001L130.623 68.9086ZM225.427 95.603C221.887 99.2899 218.577 101.059 217.633 101.538C196.964 97.1419 189.517 86.4491 189.517 86.4491C209.013 86.3288 226.609 90.9659 239.484 98.8102C239.484 98.8102 232.515 96.5518 225.427 95.603Z" fill="url(#paint2_linear)"/>
<path fill-rule="evenodd" clip-rule="evenodd" d="M217.941 193.576C203.772 200.529 186.973 204.555 168.96 204.555C118.331 204.555 77.2881 172.75 77.2881 133.516C77.2881 104.536 99.6812 79.6088 131.79 68.5588C70.7207 72.0808 21.6473 121.142 21.6473 181.677C21.6473 251.545 83.9266 309.275 160.752 309.275C218.119 309.275 265.872 276.014 290.841 231.513C256.484 239.24 215.813 224.55 217.941 193.576Z" fill="url(#paint3_linear)"/>
<path d="M428.1 212.68C446.3 212.68 457.92 206.1 467.86 195.32L456.8 184.12C448.4 191.96 440.56 196.72 428.66 196.72C409.9 196.72 396.32 181.18 396.32 162V161.72C396.32 142.54 410.04 127.28 428.52 127.28C439.86 127.28 448.12 132.04 456.1 139.32L467.16 126.58C457.78 117.62 446.86 111.32 428.66 111.32C399.12 111.32 378.26 134.14 378.26 162V162.28C378.26 190.42 399.54 212.68 428.1 212.68Z" fill="url(#paint4_linear)"/>
<path d="M528.722 212.68C558.822 212.68 580.102 189.44 580.102 162V161.72C580.102 134.14 559.102 111.32 529.002 111.32C498.902 111.32 477.622 134.56 477.622 162V162.28C477.622 189.86 498.622 212.68 528.722 212.68ZM529.002 196.72C509.402 196.72 495.682 181.04 495.682 162V161.72C495.682 142.68 509.262 127.28 528.722 127.28C548.322 127.28 562.042 142.96 562.042 162V162.28C562.042 181.32 548.462 196.72 529.002 196.72Z" fill="url(#paint5_linear)"/>
<path d="M599.507 211H616.447V141.28L670.487 211H684.907V113H667.967V180.76L615.467 113H599.507V211Z" fill="url(#paint6_linear)"/>
<path d="M743.012 212.4C763.592 212.4 778.012 201.62 778.012 183.14V182.86C778.012 166.48 767.232 159.48 746.652 154.16C727.753 149.68 723.272 146.32 723.272 138.76V138.48C723.272 131.9 729.152 126.86 739.232 126.86C748.192 126.86 756.872 130.36 765.832 136.94L775.072 123.92C764.992 115.94 753.932 111.6 739.512 111.6C720.052 111.6 706.052 123.22 706.052 140.02V140.3C706.052 158.22 717.812 164.66 738.672 169.56C756.872 173.62 760.792 177.68 760.792 184.54V184.82C760.792 192.1 754.073 197.14 743.432 197.14C731.253 197.14 722.012 192.66 712.492 184.4L702.132 196.72C713.892 207.36 727.892 212.4 743.012 212.4Z" fill="url(#paint7_linear)"/>
<path d="M841.623 212.68C871.723 212.68 893.003 189.44 893.003 162V161.72C893.003 134.14 872.003 111.32 841.903 111.32C811.803 111.32 790.523 134.56 790.523 162V162.28C790.523 189.86 811.523 212.68 841.623 212.68ZM841.903 196.72C822.303 196.72 808.583 181.04 808.583 162V161.72C808.583 142.68 822.163 127.28 841.623 127.28C861.223 127.28 874.943 142.96 874.943 162V162.28C874.943 181.32 861.363 196.72 841.903 196.72Z" fill="url(#paint8_linear)"/>
<path d="M909.409 211H978.149V195.32H926.629V113H909.409V211Z" fill="url(#paint9_linear)"/>
<path d="M994.552 211H1067.91V195.6H1011.77V169.42H1060.91V153.88H1011.77V128.4H1067.21V113H994.552V211Z" fill="url(#paint10_linear)"/>
<defs>
<linearGradient id="paint0_linear" x1="232.51" y1="574.137" x2="25.032" y2="187.464" gradientUnits="userSpaceOnUse">
<stop stop-color="#FAFEFF"/>
<stop offset="1" stop-color="#A9B9FF"/>
</linearGradient>
<linearGradient id="paint1_linear" x1="201.106" y1="12.5486" x2="312.782" y2="31.1189" gradientUnits="userSpaceOnUse">
<stop stop-color="#AAFFE7"/>
<stop offset="1" stop-color="#B3B1FF"/>
</linearGradient>
<linearGradient id="paint2_linear" x1="-111.939" y1="-106.378" x2="320.524" y2="67.0516" gradientUnits="userSpaceOnUse">
<stop stop-color="#7BFFDA"/>
<stop offset="1" stop-color="#9D9BFF"/>
</linearGradient>
<linearGradient id="paint3_linear" x1="-216.045" y1="-168.396" x2="385.246" y2="53.7933" gradientUnits="userSpaceOnUse">
<stop stop-color="#AAFFE7"/>
<stop offset="1" stop-color="#B3B1FF"/>
</linearGradient>
<linearGradient id="paint4_linear" x1="-230.688" y1="11.5438" x2="58.4823" y2="661.667" gradientUnits="userSpaceOnUse">
<stop stop-color="#7BFFDA"/>
<stop offset="1" stop-color="#9D9BFF"/>
</linearGradient>
<linearGradient id="paint5_linear" x1="-230.688" y1="11.5438" x2="58.4823" y2="661.667" gradientUnits="userSpaceOnUse">
<stop stop-color="#7BFFDA"/>
<stop offset="1" stop-color="#9D9BFF"/>
</linearGradient>
<linearGradient id="paint6_linear" x1="-230.688" y1="11.5438" x2="58.4823" y2="661.667" gradientUnits="userSpaceOnUse">
<stop stop-color="#7BFFDA"/>
<stop offset="1" stop-color="#9D9BFF"/>
</linearGradient>
<linearGradient id="paint7_linear" x1="-230.688" y1="11.5438" x2="58.4823" y2="661.667" gradientUnits="userSpaceOnUse">
<stop stop-color="#7BFFDA"/>
<stop offset="1" stop-color="#9D9BFF"/>
</linearGradient>
<linearGradient id="paint8_linear" x1="-230.688" y1="11.5438" x2="58.4823" y2="661.667" gradientUnits="userSpaceOnUse">
<stop stop-color="#7BFFDA"/>
<stop offset="1" stop-color="#9D9BFF"/>
</linearGradient>
<linearGradient id="paint9_linear" x1="-230.688" y1="11.5438" x2="58.4823" y2="661.667" gradientUnits="userSpaceOnUse">
<stop stop-color="#7BFFDA"/>
<stop offset="1" stop-color="#9D9BFF"/>
</linearGradient>
<linearGradient id="paint10_linear" x1="-230.688" y1="11.5438" x2="58.4823" y2="661.667" gradientUnits="userSpaceOnUse">
<stop stop-color="#7BFFDA"/>
<stop offset="1" stop-color="#9D9BFF"/>
</linearGradient>
</defs>
</svg>
