<svg width="60" height="14" viewBox="0 0 60 14" fill="none" xmlns="http://www.w3.org/2000/svg">
<path d="M5.461 10.849L4.741 11.551L0.52 7.33L4.741 3.109L5.461 3.811L2.509 6.763H13.498V7.897H2.509L5.461 10.849ZM27.9731 6.124C28.6571 6.418 29.1851 6.847 29.5571 7.411C29.9351 7.969 30.1241 8.62 30.1241 9.364C30.1241 10.102 29.9651 10.747 29.6471 11.299C29.3291 11.845 28.8821 12.265 28.3061 12.559C27.7301 12.853 27.0611 13 26.2991 13H20.8811V0.0399995H25.8851C26.5931 0.0399995 27.2201 0.189999 27.7661 0.489999C28.3121 0.783999 28.7351 1.186 29.0351 1.696C29.3411 2.206 29.4941 2.767 29.4941 3.379C29.4941 3.967 29.3561 4.504 29.0801 4.99C28.8101 5.476 28.4411 5.854 27.9731 6.124ZM22.2131 5.566H25.8761C26.2901 5.566 26.6681 5.473 27.0101 5.287C27.3521 5.095 27.6221 4.831 27.8201 4.495C28.0241 4.159 28.1261 3.781 28.1261 3.361C28.1261 2.959 28.0301 2.602 27.8381 2.29C27.6461 1.972 27.3791 1.726 27.0371 1.552C26.6951 1.378 26.3081 1.291 25.8761 1.291H22.2131V5.566ZM25.9751 11.731C26.5031 11.731 26.9771 11.638 27.3971 11.452C27.8171 11.26 28.1471 10.987 28.3871 10.633C28.6331 10.279 28.7561 9.862 28.7561 9.382C28.7561 8.908 28.6451 8.476 28.4231 8.086C28.2011 7.696 27.8981 7.387 27.5141 7.159C27.1301 6.931 26.6981 6.817 26.2181 6.817H22.2131V11.731H25.9751ZM39.2912 4.954C39.4832 5.422 39.5792 6.091 39.5792 6.961V13H38.4002V11.389C38.0222 12.007 37.5182 12.475 36.8882 12.793C36.2582 13.111 35.5292 13.27 34.7012 13.27C33.9932 13.27 33.3872 13.141 32.8832 12.883C32.3852 12.625 32.0102 12.277 31.7582 11.839C31.5062 11.401 31.3802 10.918 31.3802 10.39C31.3802 9.634 31.5992 9.025 32.0372 8.563C32.4752 8.101 33.0812 7.768 33.8552 7.564C34.3292 7.45 34.8572 7.348 35.4392 7.258C36.0272 7.168 36.7052 7.072 37.4732 6.97L38.2832 6.862C38.2712 5.968 38.0612 5.311 37.6532 4.891C37.2512 4.471 36.5972 4.261 35.6912 4.261C35.0072 4.261 34.4372 4.414 33.9812 4.72C33.5312 5.026 33.2162 5.497 33.0362 6.133L31.7492 5.755C31.9772 4.879 32.4272 4.204 33.0992 3.73C33.7772 3.25 34.6472 3.01 35.7092 3.01C36.5972 3.01 37.3502 3.178 37.9682 3.514C38.5922 3.85 39.0332 4.33 39.2912 4.954ZM34.8542 12.127C35.4542 12.127 35.9882 12.019 36.4562 11.803C36.9242 11.581 37.2992 11.278 37.5812 10.894C37.8692 10.504 38.0552 10.063 38.1392 9.571C38.2232 9.199 38.2652 8.683 38.2652 8.023C38.0312 8.047 37.8632 8.068 37.7612 8.086C36.9452 8.182 36.2822 8.269 35.7722 8.347C35.2622 8.419 34.8002 8.512 34.3862 8.626C33.2642 8.956 32.7032 9.544 32.7032 10.39C32.7032 10.69 32.7752 10.972 32.9192 11.236C33.0692 11.5 33.3062 11.716 33.6302 11.884C33.9542 12.046 34.3622 12.127 34.8542 12.127ZM45.9541 13.27C44.9941 13.27 44.1721 13.054 43.4881 12.622C42.8101 12.19 42.2911 11.587 41.9311 10.813C41.5771 10.039 41.3941 9.148 41.3821 8.14C41.3941 7.114 41.5801 6.217 41.9401 5.449C42.3001 4.675 42.8221 4.075 43.5061 3.649C44.1901 3.223 45.0091 3.01 45.9631 3.01C46.6111 3.01 47.2111 3.118 47.7631 3.334C48.3151 3.55 48.7861 3.862 49.1761 4.27C49.5661 4.672 49.8511 5.149 50.0311 5.701L48.7351 6.115C48.5071 5.539 48.1441 5.089 47.6461 4.765C47.1541 4.441 46.5901 4.279 45.9541 4.279C44.9161 4.279 44.1301 4.627 43.5961 5.323C43.0681 6.019 42.7981 6.958 42.7861 8.14C42.7981 9.334 43.0741 10.276 43.6141 10.966C44.1541 11.656 44.9341 12.001 45.9541 12.001C46.6141 12.001 47.1751 11.851 47.6371 11.551C48.1051 11.245 48.4591 10.801 48.6991 10.219L50.0311 10.615C49.6651 11.479 49.1341 12.139 48.4381 12.595C47.7421 13.045 46.9141 13.27 45.9541 13.27ZM51.8889 0.0399995H53.2209V7.96L57.5589 3.28H59.3229L54.7689 8.14L59.9169 13H57.9909L53.2209 8.32V13H51.8799L51.8889 0.0399995Z" fill="#0094FF"/>
</svg>
