<svg width="6" height="12" viewBox="0 0 6 12" fill="none" xmlns="http://www.w3.org/2000/svg">
  <path fill-rule="evenodd" clip-rule="evenodd" d="M3.63825 11.1024H2.36151V9.82721H3.63825V11.1024ZM3.86177 7.05405L3.75007 7.14972C3.68612 7.19769 3.63837 7.30925 3.63837 7.40491V8.56822H2.36163V7.40491C2.36163 6.9107 2.58503 6.44856 2.95225 6.14567L3.06395 6.05C4.18095 5.15751 4.72326 4.69537 4.72326 3.89854C4.72513 3.44151 4.54417 3.00265 4.22059 2.67948C3.89701 2.3563 3.45761 2.17557 3 2.17743C2.01061 2.17743 1.27674 2.91039 1.27674 3.89854H0C0 2.22512 1.32449 0.902285 3 0.902285C3.79594 0.901321 4.55957 1.21669 5.12238 1.7788C5.6852 2.34092 6.00096 3.10359 6 3.89854C6 5.34884 5.01061 6.14567 3.86177 7.05405Z" fill="white" />
</svg>
