<svg width="22" height="22" viewBox="0 0 22 22" fill="none" xmlns="http://www.w3.org/2000/svg">
<path d="M11 0C4.93452 0 0 4.93452 0 11C0 17.0655 4.93452 22 11 22C17.0655 22 22 17.0655 22 11C22 4.93452 17.0655 0 11 0ZM11 20.4286C5.80112 20.4286 1.57138 16.1989 1.57138 11C1.57138 5.80112 5.80112 1.57138 11 1.57138C16.1989 1.57138 20.4286 5.80112 20.4286 11C20.4286 16.1989 16.1989 20.4286 11 20.4286Z" fill="#FF3D00"/>
<path d="M14.9285 6.2854C14.7275 6.2854 14.5264 6.3621 14.373 6.51568L6.51589 14.3728C6.2089 14.6797 6.2089 15.1769 6.51589 15.4837C6.82271 15.7906 7.32004 15.7907 7.62687 15.4837L15.4839 7.62666C15.7909 7.31967 15.7909 6.82251 15.4839 6.51568C15.3305 6.3621 15.1296 6.2854 14.9285 6.2854Z" fill="#FF3D00"/>
<path d="M7.07129 6.28569C6.87021 6.28569 6.6693 6.36239 6.51589 6.51597C6.2089 6.8228 6.2089 7.32013 6.51589 7.62695L14.373 15.484C14.68 15.791 15.1771 15.791 15.4839 15.484C15.7908 15.1772 15.7909 14.6799 15.4839 14.373L7.62687 6.51597C7.47345 6.36239 7.27237 6.28569 7.07129 6.28569Z" fill="#FF3D00"/>
</svg>
