<?xml version="1.0" standalone="no"?>
<!DOCTYPE svg PUBLIC "-//W3C//DTD SVG 20010904//EN"
 "http://www.w3.org/TR/2001/REC-SVG-20010904/DTD/svg10.dtd">
<svg version="1.0" xmlns="http://www.w3.org/2000/svg"
 width="512.000000pt" height="512.000000pt" viewBox="0 0 512.000000 512.000000"
 preserveAspectRatio="xMidYMid meet">
<metadata>
Created by potrace 1.14, written by Peter Selinger 2001-2017
</metadata>
<g transform="translate(0.000000,512.000000) scale(0.100000,-0.100000)"
fill="#000000" stroke="none">
<path d="M1887 4252 c-27 -7 -26 -8 77 -112 58 -58 106 -108 106 -111 0 -3
-23 -6 -52 -8 -28 -1 -54 -4 -57 -6 -20 -11 -105 -14 -117 -4 -12 9 -13 9 -9
-3 5 -12 -4 -17 -37 -23 -73 -13 -80 -15 -127 -31 -25 -9 -50 -17 -56 -18 -5
-2 -18 -6 -27 -10 -9 -4 -22 -5 -28 -1 -5 3 -10 2 -10 -4 0 -5 -10 -13 -22
-16 -50 -16 -242 -107 -246 -117 -2 -5 -8 -8 -14 -8 -13 0 -174 -104 -205
-133 -13 -11 -23 -18 -23 -15 0 6 -116 -100 -184 -168 -81 -80 -151 -167 -221
-273 -55 -84 -155 -275 -155 -296 0 -8 -5 -15 -10 -15 -6 0 -9 -3 -8 -7 2 -7
-36 -134 -60 -203 -3 -8 -4 -18 -4 -22 1 -5 -3 -8 -9 -8 -5 0 -7 -4 -4 -10 3
-5 -1 -45 -10 -87 -16 -79 -28 -181 -28 -240 1 -20 -3 -30 -10 -26 -6 4 -7 1
-1 -8 4 -8 9 -50 11 -94 3 -131 11 -204 34 -310 27 -132 26 -126 39 -160 6
-16 11 -31 11 -32 -1 -2 -1 -4 0 -5 0 -2 2 -10 4 -18 5 -27 86 -225 96 -234 5
-6 9 -18 9 -27 0 -10 4 -19 8 -21 4 -1 20 -27 36 -57 28 -54 142 -232 155
-241 4 -3 14 -14 22 -26 48 -70 243 -274 261 -274 4 0 8 -7 8 -15 0 -8 4 -15
10 -15 5 0 38 -23 72 -50 108 -87 267 -188 393 -250 39 -19 73 -39 77 -45 4
-5 8 -7 8 -3 0 4 29 -6 65 -22 116 -52 371 -126 505 -146 25 -3 56 -8 70 -10
93 -15 158 -18 330 -18 246 0 267 2 590 69 18 4 241 79 290 97 56 22 240 114
304 153 32 19 60 35 63 35 2 0 13 8 24 18 10 11 32 25 47 33 15 8 29 17 32 20
3 3 30 24 60 46 30 22 71 55 90 72 19 17 55 48 80 68 54 44 208 211 285 308
93 117 212 301 201 312 -2 2 -21 -1 -43 -7 -60 -18 -344 -21 -448 -5 -246 38
-442 139 -569 295 -34 43 -79 152 -80 196 -1 23 -4 40 -8 37 -22 -13 25 174
61 245 52 100 124 162 230 197 96 32 224 9 293 -52 10 -9 15 -20 12 -24 -3 -5
0 -9 6 -9 31 0 43 -125 16 -175 -21 -40 -20 -46 7 -40 13 4 30 7 38 9 43 8
168 84 215 131 113 113 178 255 200 440 11 92 4 217 -14 266 -6 13 -10 27 -11
32 -3 22 -15 56 -34 97 -21 44 -104 164 -130 189 -15 13 -24 28 -21 32 3 5 -1
9 -8 9 -7 0 -34 20 -59 43 -64 58 -100 87 -126 99 -13 6 -23 15 -23 20 0 4 -4
8 -10 8 -5 0 -33 15 -63 33 -29 17 -61 37 -72 43 -17 9 -20 23 -21 77 -1 72
-10 89 -60 115 -73 39 -119 65 -124 71 -11 14 -310 156 -382 182 -21 7 -38 17
-38 23 0 5 -3 7 -6 3 -6 -5 -53 9 -109 34 -50 21 -270 87 -415 124 -3 0 -35 7
-72 15 -38 7 -68 16 -68 20 0 3 -10 6 -22 6 -64 0 -99 5 -95 12 3 4 -11 7 -31
7 -33 0 -79 5 -187 21 -55 8 -439 12 -468 6z m1406 -529 c6 -3 24 -7 41 -9 48
-4 92 -13 120 -24 15 -5 26 -7 26 -4 0 4 7 1 15 -6 8 -7 15 -10 15 -6 0 8 133
-41 218 -81 69 -33 95 -55 39 -34 -14 5 -57 16 -97 25 l-72 15 -61 -50 c-67
-53 -60 -53 -177 -16 -75 23 -168 68 -225 108 -51 36 -105 84 -105 94 0 9 248
-3 263 -12z"/>
</g>
</svg>
