<svg width="37" height="35" viewBox="0 0 37 35" fill="none" xmlns="http://www.w3.org/2000/svg">
<path d="M35.6468 12.9372C35.797 9.81829 33.6186 7.74925 31.1602 6.32874L29.5623 15.7165C30.6686 15.6547 31.2094 16.0747 31.4061 16.2723C31.6519 16.5194 32.2665 17.2605 31.529 18.434C33.0655 18.1869 35.4654 16.7046 35.6468 12.9372Z" fill="url(#paint0_linear)"/>
<path fill-rule="evenodd" clip-rule="evenodd" d="M14.6853 2.00758L12.7801 0.0929755C15.6482 -0.257005 23.2159 0.191794 30.542 4.78684C30.6649 5.28093 30.542 6.02206 30.542 6.02206L31.1566 6.33087C31.6892 7.09259 32.5947 9.25836 31.9555 11.8276C31.3164 14.3969 30.2142 15.4921 29.743 15.7186C28.7596 15.7186 27.0879 16.2868 26.5471 18.8067C26.0062 21.3265 24.9696 21.8741 24.5189 21.833L13.702 21.9565L6.57262 17.7567L5.5278 9.04837L7.55598 6.33087L11.1821 3.36633L13.7634 2.31638L14.6853 2.00758ZM27.4607 5.60483C26.9837 6.10166 26.5377 6.34003 26.4104 6.40467C23.6251 5.81221 22.6217 4.37127 22.6217 4.37127C25.2489 4.35507 27.6201 4.97995 29.3549 6.03702C29.3549 6.03702 28.4158 5.73269 27.4607 5.60483Z" fill="url(#paint1_linear)"/>
<path fill-rule="evenodd" clip-rule="evenodd" d="M26.4518 18.8074C24.5425 19.7444 22.2788 20.2869 19.8516 20.2869C13.0289 20.2869 7.49813 16.0009 7.49813 10.7139C7.49813 6.80845 10.516 3.44927 14.8431 1.9603C6.61332 2.43458 0 9.04601 0 17.2038C0 26.6189 8.39254 34.3984 18.7453 34.3984C26.4759 34.3984 32.9109 29.9163 36.2756 23.9195C31.6458 24.9607 26.1653 22.9812 26.4518 18.8074Z" fill="url(#paint2_linear)"/>
<defs>
<linearGradient id="paint0_linear" x1="31.5334" y1="7.62698" x2="42.0652" y2="16.1333" gradientUnits="userSpaceOnUse">
<stop stop-color="#3E3E3E"/>
<stop offset="1"/>
</linearGradient>
<linearGradient id="paint1_linear" x1="14.1498" y1="2.35476" x2="36.178" y2="30.2543" gradientUnits="userSpaceOnUse">
<stop stop-color="#818181"/>
<stop offset="1"/>
</linearGradient>
<linearGradient id="paint2_linear" x1="11.7372" y1="5.43917" x2="28.7571" y2="30.3295" gradientUnits="userSpaceOnUse">
<stop stop-color="#4E4E4E"/>
<stop offset="1" stop-color="#202020"/>
</linearGradient>
</defs>
</svg>
